<?xml version="1.0" standalone="no"?>
<!DOCTYPE svg PUBLIC "-//W3C//DTD SVG 20010904//EN"
 "http://www.w3.org/TR/2001/REC-SVG-20010904/DTD/svg10.dtd">
<svg version="1.0" xmlns="http://www.w3.org/2000/svg"
 width="746.000000pt" height="566.000000pt" viewBox="0 0 746.000000 566.000000"
 preserveAspectRatio="xMidYMid meet">

<g transform="translate(0.000000,566.000000) scale(0.100000,-0.100000)"
fill="#000000" stroke="none">
<path d="M140 4110 c0 -1197 2 -1330 16 -1330 13 0 2360 410 2437 426 l27 6 0
899 0 899 -22 5 c-48 11 -2428 425 -2443 425 -13 0 -15 -147 -15 -1330z m476
1151 c185 -33 340 -63 345 -68 4 -4 11 -40 14 -79 l7 -71 -56 -38 c-31 -20
-72 -55 -91 -78 -19 -22 -36 -39 -38 -36 -51 69 -191 227 -198 223 -6 -3 10
-29 33 -57 24 -29 70 -83 102 -122 32 -38 62 -71 65 -73 4 -1 28 23 55 53 26
30 53 55 60 55 8 0 33 -79 71 -229 54 -217 56 -231 41 -252 -10 -15 -16 -44
-16 -79 0 -54 -1 -57 -86 -163 -48 -60 -90 -105 -94 -100 -18 19 -40 172 -40
279 0 102 -2 114 -17 114 -10 0 -47 9 -82 20 -37 12 -68 17 -73 12 -5 -5 25
-19 71 -32 l81 -24 0 -103 c0 -116 20 -228 56 -317 l24 -60 -35 -53 c-19 -29
-39 -53 -43 -53 -4 0 -21 23 -37 50 -16 28 -32 49 -35 47 -32 -16 -110 -72
-110 -78 0 -13 5 -12 61 19 37 19 53 24 56 14 13 -35 99 -136 146 -171 l54
-41 -12 -68 c-15 -76 -2 -109 13 -35 26 121 26 116 -18 142 -22 14 -54 40 -71
58 l-32 32 42 64 c46 71 47 76 26 117 -15 28 -14 29 72 137 47 59 88 110 89
112 2 2 17 -2 33 -8 22 -10 34 -10 51 -1 31 17 53 74 45 121 -6 37 -3 43 77
144 45 57 87 103 93 101 14 -4 43 -137 47 -215 l3 -66 48 -3 c44 -3 47 -5 47
-30 -1 -52 -20 -163 -38 -217 l-19 -55 90 -55 c49 -31 94 -54 100 -52 7 2 -27
29 -75 60 l-86 56 19 73 c26 98 34 253 19 353 -6 44 -14 96 -17 115 -4 33 -1
38 51 80 30 25 55 48 56 53 1 15 -20 6 -61 -29 -23 -19 -51 -41 -61 -48 -17
-12 -18 -17 -4 -77 9 -35 17 -95 18 -134 3 -66 2 -70 -20 -73 -37 -6 -52 15
-52 73 0 92 -67 303 -106 336 -22 18 -17 37 27 121 22 43 36 78 30 78 -10 0
-30 -31 -75 -115 l-27 -51 36 -59 c19 -32 35 -66 35 -74 0 -9 -39 -64 -86
-123 -78 -99 -88 -107 -112 -102 -15 4 -30 9 -34 13 -4 3 -34 111 -67 239
l-59 232 30 16 31 16 -7 84 c-5 69 -4 84 8 84 11 0 1192 -204 1484 -256 l32
-6 0 -822 0 -821 -793 -139 c-435 -76 -893 -156 -1017 -177 -124 -22 -256 -45
-295 -53 -38 -8 -91 -17 -117 -21 l-48 -6 0 1215 c0 1052 2 1216 14 1216 8 0
166 -27 352 -59z"/>
<path d="M2020 4210 c-25 -25 -25 -41 0 -89 20 -40 36 -51 75 -51 55 0 54 96
-2 139 -32 26 -48 26 -73 1z"/>
<path d="M2177 4209 c-32 -45 21 -139 78 -139 64 0 54 119 -12 149 -35 16 -50
14 -66 -10z"/>
<path d="M2352 4168 c-25 -25 -14 -78 23 -115 19 -19 40 -33 47 -31 7 3 19 28
27 57 14 50 13 52 -9 76 -25 27 -68 33 -88 13z"/>
<path d="M1884 4125 c-22 -33 -10 -78 28 -110 37 -32 63 -32 84 0 13 20 14 31
5 57 -26 73 -86 101 -117 53z"/>
<path d="M1810 3974 c-29 -74 61 -163 112 -112 41 41 -2 131 -66 136 -31 3
-37 0 -46 -24z"/>
<path d="M1282 3848 c-20 -26 -23 -57 -7 -87 49 -96 149 -68 115 33 -17 53
-82 86 -108 54z"/>
<path d="M1447 3839 c-32 -44 24 -145 76 -137 29 4 52 47 43 82 -9 36 -52 76
-82 76 -13 0 -29 -9 -37 -21z"/>
<path d="M1612 3808 c-21 -21 -14 -74 14 -107 40 -48 60 -41 75 24 11 49 10
57 -6 75 -20 22 -64 27 -83 8z"/>
<path d="M1142 3768 c-7 -7 -12 -30 -12 -51 0 -31 7 -45 31 -68 35 -33 60 -37
83 -13 30 29 14 94 -32 132 -20 15 -54 16 -70 0z"/>
<path d="M1072 3608 c-31 -31 -2 -117 47 -137 45 -19 71 -1 71 49 0 71 -77
129 -118 88z"/>
<path d="M510 3470 c-33 -33 -20 -88 28 -127 25 -21 70 -16 83 8 16 30 -4 92
-38 118 -32 26 -48 26 -73 1z"/>
<path d="M698 3479 c-28 -16 -24 -81 7 -117 32 -39 61 -46 86 -21 28 28 24 73
-8 108 -33 34 -61 44 -85 30z"/>
<path d="M845 3413 c-37 -37 8 -143 61 -143 17 0 24 9 33 46 15 57 8 80 -29
99 -37 19 -45 19 -65 -2z"/>
<path d="M376 3384 c-35 -34 -8 -112 45 -134 43 -18 63 -4 67 49 3 35 -2 46
-27 71 -33 33 -62 38 -85 14z"/>
<path d="M314 3242 c-56 -37 -26 -138 46 -155 75 -19 80 117 5 151 -30 14 -36
14 -51 4z"/>
<path d="M4465 5199 c-22 -5 -90 -9 -150 -9 -62 1 -136 -5 -170 -13 -179 -42
-357 -155 -434 -276 l-32 -50 -31 19 c-18 10 -35 17 -39 15 -9 -6 6 -72 21
-90 16 -20 11 -19 -51 5 -28 12 -54 19 -56 16 -12 -12 21 -75 55 -108 49 -48
199 -118 276 -130 17 -3 19 -11 17 -73 -1 -45 5 -95 18 -140 l20 -70 -22 -22
c-12 -12 -38 -30 -57 -40 -20 -12 -36 -29 -38 -42 -3 -17 6 -25 43 -42 l46
-21 -2 -168 c-3 -184 -2 -187 55 -218 25 -14 59 -17 174 -17 166 0 154 15 118
-145 -26 -114 -58 -214 -87 -271 -16 -32 -24 -38 -64 -44 -85 -12 -249 -66
-344 -113 -145 -71 -263 -189 -332 -332 -49 -101 -107 -334 -124 -494 l-8 -69
-127 -126 c-70 -69 -146 -152 -170 -185 l-42 -58 -42 8 c-22 5 -169 9 -326 9
-281 1 -311 3 -705 50 -174 21 -175 21 -175 48 0 34 -101 223 -143 267 -19 21
-43 52 -52 69 -22 43 -68 44 -90 1 -19 -37 -19 -67 0 -104 30 -57 -2 -46 -111
36 l-109 83 -7 80 c-4 46 -3 93 3 111 19 60 -9 106 -51 84 -25 -13 -27 -13
-33 10 -7 26 -33 36 -54 19 -9 -8 -25 -33 -35 -56 -10 -24 -23 -43 -29 -43
-18 0 -40 -70 -39 -123 1 -29 -3 -68 -8 -88 -17 -68 3 -144 71 -263 65 -114
121 -174 179 -193 18 -6 85 -30 148 -53 377 -137 998 -345 1085 -364 131 -29
240 -38 441 -37 197 0 202 1 300 31 54 18 123 45 151 61 29 16 55 29 58 29 3
0 -23 -41 -57 -91 -61 -87 -62 -91 -44 -105 11 -8 23 -14 26 -14 4 0 30 35 60
78 117 168 250 322 279 322 13 0 58 -270 47 -279 -23 -19 -434 -221 -449 -221
-9 0 -19 5 -22 10 -12 20 -32 9 -48 -25 -14 -29 -31 -42 -94 -71 -72 -33 -78
-34 -90 -18 -22 30 -15 51 25 71 35 17 37 21 39 68 2 70 -13 112 -47 130 -42
22 -66 19 -101 -13 -28 -25 -31 -34 -34 -96 l-4 -68 35 -20 c19 -11 34 -27 34
-35 0 -8 -18 -35 -40 -60 -22 -25 -40 -49 -40 -53 0 -4 -21 -15 -47 -25 -27
-10 -77 -31 -113 -48 -302 -137 -825 -312 -1114 -372 -115 -23 -129 -24 -149
-10 -31 22 -64 19 -92 -10 -32 -31 -33 -74 -2 -103 40 -37 98 -26 125 24 8 15
25 23 60 28 241 32 797 217 1298 432 7 3 13 -19 17 -62 5 -46 15 -82 35 -118
19 -34 31 -72 35 -115 7 -62 7 -63 -16 -57 -12 4 -37 10 -56 13 -29 5 -33 3
-29 -13 3 -15 13 -20 58 -22 30 -2 58 -6 63 -11 4 -4 -4 -22 -18 -41 -28 -39
-33 -65 -10 -56 9 3 40 13 70 22 55 15 68 29 40 40 -8 4 -15 14 -15 25 0 15 9
18 52 21 42 2 54 7 56 22 6 31 -12 39 -53 22 -21 -9 -41 -14 -44 -11 -18 19
84 312 155 445 l35 65 256 128 c141 70 258 125 260 123 2 -2 21 -95 42 -206
22 -111 43 -206 48 -211 5 -5 49 -24 98 -44 l90 -35 270 134 c295 147 490 254
746 407 l166 99 16 93 c17 91 17 95 -3 153 -30 87 -76 264 -99 384 -34 180
-45 317 -45 550 1 216 9 298 50 531 7 42 1 47 -87 56 -31 3 -62 9 -68 12 -12
8 -29 116 -34 228 l-4 81 31 -22 c55 -41 112 -57 195 -55 89 2 107 9 182 67
133 102 157 275 58 412 -34 46 -105 96 -161 111 l-38 10 45 55 c144 177 167
413 58 587 -26 42 -71 92 -194 217 -74 77 -168 128 -293 160 -92 23 -236 33
-291 19z m-1415 -4149 c-24 -47 -25 -47 -33 -3 -6 28 -3 35 21 47 35 19 38 7
12 -44z"/>
<path d="M7020 4372 c-35 -36 -38 -69 -9 -106 l21 -26 -31 -36 c-32 -36 -40
-79 -21 -115 9 -16 7 -19 -13 -19 -27 0 -52 -23 -42 -40 7 -11 183 -14 257 -4
38 5 45 9 41 25 -3 11 -15 22 -27 25 -17 4 -21 13 -21 43 -1 26 -11 51 -33 81
-18 24 -32 47 -32 51 0 5 12 14 28 21 15 7 28 22 29 33 4 29 -48 84 -85 91
-26 5 -36 1 -62 -24z"/>
<path d="M5920 4233 c-32 -12 -69 -41 -135 -107 -84 -86 -143 -170 -203 -291
-37 -76 -123 -316 -157 -442 -19 -69 -36 -127 -37 -128 -2 -2 -22 -12 -44 -23
l-42 -21 -68 29 c-107 45 -108 45 -127 -52 -80 -414 -52 -877 81 -1333 9 -30
9 -29 20 20 6 28 20 104 33 170 12 66 25 123 28 128 4 4 13 -66 20 -155 13
-168 8 -218 -22 -218 -23 0 -67 -40 -67 -60 0 -21 20 -31 50 -23 20 5 21 3 15
-28 -12 -70 4 -68 127 14 249 167 384 260 404 278 75 69 68 333 -16 579 -21
63 -38 115 -37 116 368 263 690 535 999 844 l236 237 56 7 c51 7 59 5 87 -18
37 -31 68 -33 103 -5 52 41 21 119 -48 119 -18 0 -39 -7 -46 -15 -8 -10 -29
-15 -59 -14 -42 1 -43 2 -17 9 44 14 66 39 66 77 0 69 -76 98 -127 47 -19 -20
-24 -32 -20 -57 3 -21 -2 -43 -14 -63 -17 -28 -25 -32 -101 -43 -362 -55 -903
-244 -1312 -459 -44 -23 -82 -40 -84 -37 -2 2 8 45 23 97 80 278 212 541 339
677 49 52 146 101 199 101 45 0 102 -27 140 -68 27 -29 28 -32 16 -66 -15 -43
-2 -81 35 -98 60 -27 122 42 91 102 -8 16 -23 31 -34 35 -11 3 -35 25 -54 49
-20 23 -62 57 -95 74 -68 37 -128 41 -202 15z m922 -520 c-16 -21 -103 -110
-193 -198 -199 -194 -441 -404 -655 -566 -39 -30 -117 -90 -174 -133 -81 -62
-106 -76 -112 -65 -91 155 -126 205 -200 287 -87 95 -89 98 -83 137 3 22 13
46 23 54 9 7 111 60 226 117 282 139 560 250 806 320 124 36 327 82 363 83
l29 1 -30 -37z m-1467 -1679 c-17 -48 -33 -39 -37 20 l-3 56 25 -25 c20 -21
22 -29 15 -51z"/>
<path d="M3790 895 c0 -51 8 -56 53 -33 28 14 37 23 27 26 -8 2 -30 11 -47 18
-32 12 -33 12 -33 -11z"/>
</g>
</svg>
